<!--?xml version="1.0" standalone="no"?-->
              <svg id="sw-js-blob-svg" viewBox="0 0 100 100" xmlns="http://www.w3.org/2000/svg" version="1.1">
                    <defs> 
                        <linearGradient id="sw-gradient" x1="0" x2="1" y1="1" y2="0">
                            <stop id="stop1" stop-color="rgba(248, 117, 55, 1)" offset="0%"></stop>
                            <stop id="stop2" stop-color="rgba(251, 168, 31, 1)" offset="100%"></stop>
                        </linearGradient>
                    </defs>
                <path fill="url(#sw-gradient)" d="M25.2,-28C30.9,-25.2,32.7,-15.6,32.9,-6.9C33,1.8,31.6,9.6,28.3,17.3C25,25,19.8,32.6,12.9,35C5.9,37.3,-2.8,34.4,-12.1,31.7C-21.4,29,-31.4,26.4,-36.6,19.9C-41.9,13.4,-42.4,2.9,-39.7,-6C-37,-15,-31,-22.5,-23.9,-25C-16.7,-27.6,-8.4,-25.2,0.7,-26C9.7,-26.8,19.4,-30.8,25.2,-28Z" width="100%" height="100%" transform="translate(50 50)" stroke-width="0" style="transition: all 0.3s ease 0s;"></path>
              </svg>