<?xml version="1.0" standalone="no"?>
<svg xmlns:xlink="http://www.w3.org/1999/xlink" id="wave" style="transform:rotate(0deg); transition: 0.3s" viewBox="0 0 1440 340" version="1.1" xmlns="http://www.w3.org/2000/svg"><defs><linearGradient id="sw-gradient-0" x1="0" x2="0" y1="1" y2="0"><stop stop-color="rgba(79, 45, 138, 1)" offset="0%"/><stop stop-color="rgba(43, 169, 132, 1)" offset="100%"/></linearGradient></defs><path style="transform:translate(0, 0px); opacity:1" fill="url(#sw-gradient-0)" d="M0,204L48,175.7C96,147,192,91,288,73.7C384,57,480,79,576,107.7C672,136,768,170,864,175.7C960,181,1056,159,1152,124.7C1248,91,1344,45,1440,34C1536,23,1632,45,1728,68C1824,91,1920,113,2016,136C2112,159,2208,181,2304,170C2400,159,2496,113,2592,85C2688,57,2784,45,2880,45.3C2976,45,3072,57,3168,85C3264,113,3360,159,3456,153C3552,147,3648,91,3744,73.7C3840,57,3936,79,4032,96.3C4128,113,4224,125,4320,107.7C4416,91,4512,45,4608,56.7C4704,68,4800,136,4896,136C4992,136,5088,68,5184,62.3C5280,57,5376,113,5472,147.3C5568,181,5664,193,5760,198.3C5856,204,5952,204,6048,181.3C6144,159,6240,113,6336,130.3C6432,147,6528,227,6624,249.3C6720,272,6816,238,6864,221L6912,204L6912,340L6864,340C6816,340,6720,340,6624,340C6528,340,6432,340,6336,340C6240,340,6144,340,6048,340C5952,340,5856,340,5760,340C5664,340,5568,340,5472,340C5376,340,5280,340,5184,340C5088,340,4992,340,4896,340C4800,340,4704,340,4608,340C4512,340,4416,340,4320,340C4224,340,4128,340,4032,340C3936,340,3840,340,3744,340C3648,340,3552,340,3456,340C3360,340,3264,340,3168,340C3072,340,2976,340,2880,340C2784,340,2688,340,2592,340C2496,340,2400,340,2304,340C2208,340,2112,340,2016,340C1920,340,1824,340,1728,340C1632,340,1536,340,1440,340C1344,340,1248,340,1152,340C1056,340,960,340,864,340C768,340,672,340,576,340C480,340,384,340,288,340C192,340,96,340,48,340L0,340Z"/></svg>